<svg xmlns="http://www.w3.org/2000/svg" viewBox="0 0 230.19 187.95">
  <path d="M4.000 183.952 C37.945 123.081 74.187 62.471 115.371 4.000 C133.571 32.045 151.111 59.075 168.442 85.781 C151.017 76.170 133.710 66.623 116.112 56.917 C116.112 56.917 20.033 171.700 9.317 183.952 L4.000 183.952 Z" fill="#B89A3E"/>
  <path d="M226.193 183.736 L199.373 183.736 C194.407 174.782 189.439 165.783 184.430 156.807 C177.133 143.731 169.288 131.013 156.421 122.576 C139.819 111.689 121.492 110.493 102.963 115.449 C90.731 118.721 79.039 124.010 67.549 128.233 C70.632 125.464 74.279 121.874 78.244 118.678 C95.936 104.413 115.862 94.579 138.770 94.186 C158.938 93.839 177.497 99.378 188.710 118.527 C200.670 138.952 212.535 159.432 224.423 179.898 C224.966 180.832 225.337 181.865 226.193 183.736 Z" fill="#B89A3E"/>
</svg>